<svg width="146" height="89" viewBox="0 0 146 89" fill="none" xmlns="http://www.w3.org/2000/svg">
<path d="M89.9392 34.8C90.7392 36.2 91.4392 37.7 91.9392 39.3C92.4392 40.7 92.8392 42.2 93.1392 43.7C93.2392 44.1 93.2392 44.5 93.3392 44.8C93.4392 45.1 93.3392 45.2 93.1392 45.3C91.6392 46 90.1392 46.8 88.6392 47.5C86.6392 48.5 84.5392 49.5 82.5392 50.5C81.0392 51.2 79.5392 52 77.9392 52.7C76.3392 53.5 74.6392 54.3 73.0392 55.1C71.5392 55.8 69.9392 56.6 68.4392 57.3C66.8392 58.1 65.2392 58.9 63.5392 59.7C62.8392 60 62.1392 60.4 61.3392 60.7C61.2392 60.7 61.1392 60.9 61.0392 60.8C60.9392 60.6 60.8392 60.3 61.0392 60.2C62.1392 59.4 62.8392 58.2 63.6392 57.2C64.2392 56.4 64.8392 55.5 65.4392 54.6C66.2392 53.4 66.8392 52 67.3392 50.6C67.9392 49 68.3392 47.3 68.6392 45.6C68.8392 44.6 68.9392 43.6 69.0392 42.6C69.1392 41.1 69.1392 39.6 69.1392 38.2C69.1392 36.9 69.0392 35.7 68.8392 34.4C68.6392 32.5 68.2392 30.7 67.7392 28.9C67.1392 26.9 66.4392 24.9 65.5392 22.9C64.5392 20.7 63.2392 18.6 61.7392 16.7C60.8392 15.5 59.7392 14.4 58.6392 13.3C58.2392 12.9 57.7392 12.5 57.3392 12.2C57.2392 12.1 57.1392 12.1 57.1392 12C57.2392 11.9 57.3392 11.9 57.4392 11.9C57.7392 12 58.1392 12 58.4392 12.1C60.1392 12.6 61.9392 13 63.6392 13.6C65.0392 14.1 66.3392 14.6 67.6392 15.2H67.7392C68.1392 15.6 68.5392 16.1 68.9392 16.5C71.1392 19.2 73.0392 22.2 74.4392 25.4C76.1392 29 77.1392 32.9 77.6392 36.8C77.9392 39 78.0392 41.1 77.9392 43.3C77.9392 43.8 77.9392 44.3 77.9392 44.8C77.9392 45 77.9392 45.1 78.1392 45.1C78.2392 45.2 78.3392 45.1 78.4392 45C79.3392 44.2 80.2392 43.4 81.2392 42.5C82.2392 41.6 83.1392 40.8 84.1392 39.9C85.4392 38.7 86.7392 37.6 88.0392 36.4C88.7392 35.8 89.2392 35.2 89.9392 34.8Z" fill="#13284D"/>
<path d="M89.9394 34.8C89.2394 35.2 88.7394 35.8 88.1394 36.3C86.8394 37.4 85.5394 38.6 84.2394 39.8C83.2394 40.7 82.3394 41.5 81.3394 42.4C80.4394 43.2 79.5394 44 78.5394 44.9C78.4394 45 78.3394 45 78.2394 45C78.1394 44.9 78.0394 44.8 78.0394 44.7C78.0394 44.2 78.0394 43.7 78.0394 43.2C78.0394 41 77.9394 38.9 77.7394 36.7C77.2394 32.7 76.2394 28.9 74.5394 25.3C73.0394 22.1 71.2394 19.1 69.0394 16.4C68.6394 15.9 68.3394 15.5 67.8394 15.1C67.8394 15 67.8394 15 67.7394 14.9C67.0394 14.1 66.3394 13.4 65.6394 12.7C63.9394 11 62.1394 9.5 60.0394 8.4C59.9394 8.4 59.8394 8.4 59.8394 8.2C59.9394 8 60.0394 8 60.2394 8C60.8394 8.1 61.5394 8.3 62.1394 8.4C63.9394 8.9 65.7394 9.4 67.5394 10C69.3394 10.6 71.1394 11.4 72.8394 12.2C75.0394 13.2 77.1394 14.4 79.1394 15.8C80.2394 16.6 81.3394 17.4 82.3394 18.2C83.3394 19.1 84.4394 20 85.3394 21C86.4394 22.2 87.5394 23.4 88.6394 24.7C89.9394 26.4 91.1394 28.1 92.2394 29.9C92.5394 30.4 92.8394 31 93.0394 31.5C93.1394 31.6 93.1394 31.7 93.0394 31.8C92.3394 32.4 91.7394 33 91.1394 33.6C90.6394 34 90.1394 34.3 89.9394 34.8Z" fill="#89BF1E"/>
<path d="M16.8392 71.8C17.2392 72 17.5392 72.1 17.8392 72.4C18.6392 73 19.0392 73.8 19.1392 74.8C19.2392 76.7 18.3392 77.9 16.7392 78.8C15.8392 79.3 14.7392 79.5 13.7392 79.6C12.8392 79.7 12.0392 79.8 11.1392 79.7C10.1392 79.7 9.23923 79.6 8.23923 79.5C8.03923 79.5 7.93923 79.4 8.03923 79.1C8.23923 77.8 8.53923 76.6 8.73923 75.3C8.93923 74.5 9.03923 73.6 9.23923 72.8C9.43923 71.8 9.63923 70.8 9.73923 69.8C9.83923 69 9.93923 68.2 10.1392 67.4C10.2392 66.7 10.4392 65.9 10.5392 65.2C10.5392 65 10.6392 64.9 10.9392 64.9C12.6392 64.9 14.3392 64.9 16.0392 64.9C17.4392 64.9 18.6392 65.4 19.3392 66.7C20.0392 67.9 19.9392 69.6 18.9392 70.6C18.3392 71.1 17.6392 71.5 16.8392 71.8ZM12.4392 77.3C12.9392 77.3 13.3392 77.3 13.8392 77.2C14.7392 77 15.5392 76.6 15.7392 75.6C15.9392 74.7 15.7392 73.8 14.7392 73.4C14.1392 73.1 13.4392 73 12.7392 73C12.2392 73 12.2392 73 12.1392 73.5C11.9392 74.6 11.7392 75.7 11.5392 76.8C11.5392 77 11.6392 77.1 11.7392 77.1C11.9392 77.3 12.1392 77.3 12.4392 77.3ZM14.4392 67.3C14.1392 67.3 13.9392 67.3 13.6392 67.3C13.4392 67.3 13.2392 67.4 13.1392 67.6C12.9392 68.6 12.8392 69.6 12.6392 70.5C12.6392 70.7 12.6392 70.7 12.8392 70.7C13.4392 70.7 14.0392 70.7 14.5392 70.6C15.2392 70.4 15.8392 70.3 16.2392 69.6C16.8392 68.7 16.5392 67.6 15.3392 67.3C15.0392 67.3 14.7392 67.3 14.4392 67.3Z" fill="#89BF1E"/>
<path d="M112.139 70.2C112.839 69.4 113.739 69 114.739 68.8C116.539 68.5 117.939 69.4 118.439 71.2C118.739 72.6 118.539 74 118.039 75.3C117.639 76.3 117.139 77.2 116.339 78C115.339 79 114.139 79.5 112.739 79.7C111.739 79.8 110.839 79.8 109.839 79.5C108.639 79.1 107.939 78.4 107.839 77.1C107.739 76 108.039 75 108.239 74C108.439 72.7 108.739 71.4 109.039 70.2C109.339 68.8 109.639 67.4 109.839 66C109.939 65.4 110.039 64.9 110.139 64.3C110.139 64.2 110.239 64.1 110.339 64.1C111.239 64.1 112.139 64.1 113.139 64.1C113.339 64.1 113.339 64.3 113.339 64.4C113.139 65.5 112.839 66.5 112.639 67.6C112.439 68.5 112.239 69.3 112.139 70.2C112.039 70.2 112.039 70.1 112.139 70.2C112.139 70.2 112.039 70.2 112.139 70.2ZM115.339 73.2C115.339 73 115.339 72.9 115.339 72.7C115.339 71.9 114.839 71.4 114.139 71.3C113.239 71.2 112.639 71.6 112.139 72.3C111.539 73.1 111.339 74 111.139 74.9C111.039 75.4 110.939 76 110.939 76.5C110.939 77 111.239 77.3 111.639 77.5C112.339 77.7 113.039 77.5 113.539 77C114.739 75.9 115.239 74.6 115.339 73.2Z" fill="#13284D"/>
<path d="M53.0393 79.6C51.9393 79.6 50.8393 79.6 49.8393 79.6C49.6393 79.6 49.5393 79.6 49.5393 79.4C48.9393 78 48.4393 76.6 47.8393 75.3C47.8393 75.3 47.8393 75.2 47.7393 75.2C47.5393 75.4 47.3393 75.5 47.1393 75.7C46.4393 76.1 46.4393 76.8 46.3393 77.5C46.2393 78.2 46.0393 78.9 45.9393 79.6C45.9393 79.7 45.8393 79.8 45.7393 79.8C44.8393 79.8 43.9393 79.8 42.9393 79.8C42.7393 79.8 42.7393 79.7 42.7393 79.6C43.0393 78.1 43.3393 76.7 43.6393 75.2C43.9393 73.3 44.3393 71.4 44.7393 69.4C45.0393 67.9 45.3393 66.4 45.6393 64.8C45.7393 64.4 45.8393 64.3 46.2393 64.3C47.1393 64.3 47.9393 64.3 48.8393 64.3C48.5393 65.8 48.2393 67.4 48.0393 68.9C47.7393 70.4 47.4393 71.9 47.2393 73.5C47.5393 73.2 47.7393 72.8 48.0393 72.5C48.6393 71.8 49.1393 71.1 49.7393 70.4C50.0393 70.1 50.3393 69.7 50.6393 69.4C50.7393 69.2 50.9393 69.1 51.1393 69.1C52.3393 69.1 53.4393 69.1 54.6393 69.1C54.6393 69.3 54.4393 69.3 54.4393 69.4C53.1393 70.7 51.8393 72 50.4393 73.3C50.2393 73.5 50.2393 73.6 50.3393 73.8C51.2393 75.7 52.1393 77.5 53.0393 79.4C52.9393 79.3 52.9393 79.5 53.0393 79.6Z" fill="#89BF1E"/>
<path d="M62.4392 64.7C63.6392 64.7 64.6392 64.9 65.6392 65.3C65.8392 65.4 65.9392 65.4 65.8392 65.7C65.5392 66.4 65.2392 67.2 65.0392 67.9C64.9392 68.1 64.8392 68 64.7392 68C63.7392 67.5 62.7392 67.4 61.6392 67.5C60.9392 67.6 60.3392 67.8 60.0392 68.4C59.7392 69 59.9392 69.7 60.6392 70.2C61.3392 70.7 62.1392 71.1 62.9392 71.6C64.8392 72.9 65.3392 74.5 64.6392 76.6C64.2392 77.8 63.3392 78.6 62.1392 79.2C60.8392 79.8 59.5392 79.9 58.1392 79.8C57.0392 79.7 55.9392 79.5 55.0392 79C54.8392 78.9 54.8392 78.8 54.9392 78.6C55.2392 77.9 55.5392 77.2 55.7392 76.5C55.8392 76.4 55.8392 76.3 56.0392 76.4C56.8392 76.8 57.7392 77.1 58.6392 77.2C59.3392 77.3 60.0392 77.2 60.6392 76.9C61.7392 76.4 61.9392 75 60.8392 74.2C60.1392 73.7 59.3392 73.3 58.5392 72.8C57.6392 72.2 56.8392 71.4 56.6392 70.2C56.4392 68.8 56.7392 67.5 57.7392 66.5C58.7392 65.4 60.0392 65 61.4392 64.8C61.6392 64.8 61.7392 64.7 61.9392 64.7C62.2392 64.8 62.3392 64.7 62.4392 64.7Z" fill="#13284D"/>
<path d="M22.2393 71.5C22.1393 70.8 22.0393 70.2 22.0393 69.5C22.0393 69.3 22.0393 69.2 22.2393 69.1C23.1393 68.7 24.0393 68.4 25.0393 68.2C25.6393 68.1 26.3393 68.1 26.9393 68.1C27.9393 68.1 28.9393 68.4 29.5393 69.3C29.9393 69.8 30.1393 70.4 30.1393 71.1C30.2393 72.8 29.8393 74.5 29.4393 76.2C29.2393 77.2 28.9393 78.3 28.9393 79.4C28.9393 79.6 28.8393 79.7 28.6393 79.7C27.8393 79.7 27.0393 79.7 26.2393 79.7C26.0393 79.7 25.8393 79.7 25.9393 79.4C26.0393 79.2 25.9393 79.1 25.9393 78.8C25.3393 79.2 24.7393 79.6 24.0393 79.7C23.0393 80 21.9393 80 20.9393 79.4C20.2393 79 19.8393 78.4 19.7393 77.6C19.5393 76.2 20.0393 75 21.0393 74C21.7393 73.3 22.6393 72.9 23.5393 72.6C24.5393 72.3 25.5393 72.2 26.6393 72.2C26.8393 72.2 26.9393 72.1 26.9393 71.9C26.9393 71.1 26.4393 70.7 25.6393 70.7C24.5393 70.6 23.4393 70.9 22.4393 71.4C22.4393 71.4 22.3393 71.5 22.2393 71.5ZM26.3393 74.4C25.6393 74.5 25.0393 74.5 24.5393 74.7C23.7393 75 23.2393 75.5 23.0393 76.3C22.9393 76.8 23.2393 77.2 23.7393 77.4C24.5393 77.6 25.1393 77.3 25.6393 76.9C26.3393 76.4 26.4393 75.6 26.6393 74.9C26.6393 74.5 26.5393 74.3 26.3393 74.4Z" fill="#89BF1E"/>
<path d="M125.039 78.9C124.339 79.5 123.539 79.8 122.739 80C121.639 80.2 120.639 80.1 119.739 79.4C119.039 78.9 118.839 78.1 118.839 77.2C118.939 75.6 119.739 74.4 121.039 73.5C122.239 72.8 123.539 72.5 124.839 72.4C125.139 72.4 125.439 72.3 125.839 72.3C126.039 72.3 126.039 72.2 126.139 72.1C126.239 71.5 125.939 71 125.339 70.9C124.339 70.6 123.339 70.8 122.339 71.2C121.939 71.3 121.639 71.5 121.239 71.7C121.139 71 121.139 70.3 121.039 69.7C121.039 69.5 121.039 69.5 121.139 69.4C122.039 68.9 122.939 68.7 123.939 68.5C124.639 68.4 125.339 68.4 126.039 68.5C127.039 68.5 127.839 68.9 128.539 69.7C128.939 70.2 129.139 70.9 129.139 71.6C129.239 73.3 128.839 74.9 128.439 76.5C128.239 77.6 127.939 78.6 127.939 79.7C127.939 79.9 127.939 79.9 127.739 79.9C126.939 79.9 126.139 79.9 125.339 79.9C125.039 79.9 124.939 79.8 125.039 79.6C125.039 79.3 125.039 79.1 125.039 78.9ZM122.039 76.7C122.039 77.2 122.239 77.5 122.739 77.6C123.439 77.8 124.039 77.5 124.639 77.1C125.339 76.6 125.439 75.9 125.639 75.1C125.639 74.9 125.739 74.7 125.739 74.6C125.639 74.4 125.439 74.6 125.239 74.6C124.539 74.6 123.939 74.7 123.339 75C122.539 75.3 122.039 76 122.039 76.7Z" fill="#13284D"/>
<path d="M35.4394 70.6C35.9394 70 36.5394 69.4 37.2394 69.1C38.4394 68.6 39.6394 68.4 40.8394 69.2C41.5394 69.6 41.7394 70.3 41.8394 71.1C41.9394 72.5 41.6394 73.8 41.3394 75.1C41.1394 76.2 40.9394 77.3 40.7394 78.5C40.6394 78.8 40.6394 79.1 40.5394 79.3C40.5394 79.5 40.4394 79.6 40.2394 79.6C39.3394 79.6 38.5394 79.6 37.6394 79.6C37.4394 79.6 37.3394 79.6 37.4394 79.3C37.6394 78.1 37.9394 76.9 38.1394 75.6C38.2394 74.9 38.4394 74.2 38.5394 73.5C38.6394 73 38.6394 72.5 38.5394 72C38.3394 71.3 37.5394 71.2 37.0394 71.4C36.2394 71.7 35.7394 72.4 35.4394 73.1C34.9394 74.3 34.7394 75.5 34.5394 76.7C34.3394 77.6 34.2394 78.5 34.0394 79.4C34.0394 79.6 33.9394 79.6 33.7394 79.6C32.7394 79.6 31.8394 79.6 30.8394 79.6C31.1394 78.3 31.3394 76.9 31.6394 75.6C31.8394 74.5 32.0394 73.5 32.2394 72.4C32.4394 71.3 32.6394 70.3 32.7394 69.2C32.7394 69 32.8394 68.9 33.0394 68.9C33.8394 68.9 34.5394 68.9 35.3394 68.9C35.5394 68.9 35.6394 68.9 35.5394 69.1C35.4394 69.7 35.4394 70.1 35.4394 70.6C35.3394 70.6 35.3394 70.6 35.4394 70.6C35.4394 70.6 35.4394 70.7 35.4394 70.6Z" fill="#89BF1E"/>
<path d="M70.6391 69C70.4391 69.9 70.3391 70.8 70.1391 71.7C69.9391 72.8 69.7391 73.9 69.5391 75C69.4391 75.6 69.3391 76.2 69.5391 76.7C69.7391 77.2 70.2391 77.5 70.7391 77.3C71.6391 77.1 72.0391 76.5 72.4391 75.8C72.9391 75 73.0391 74.1 73.2391 73.1C73.4391 71.8 73.7391 70.5 73.9391 69.2C73.9391 69 74.0391 68.9 74.3391 68.9C75.1391 68.9 76.0391 68.9 76.8391 68.9C77.0391 68.9 77.0391 69 77.0391 69.1C76.8391 70.2 76.6391 71.3 76.4391 72.4C76.2391 73.7 75.9391 74.9 75.7391 76.2C75.5391 77.2 75.4391 78.1 75.3391 79.1C75.3391 79.4 75.2391 79.5 74.9391 79.5C74.1391 79.5 73.3391 79.5 72.5391 79.5C72.6391 78.9 72.6391 78.4 72.7391 77.9C72.6391 77.8 72.5391 77.9 72.5391 78C71.8391 78.9 70.9391 79.5 69.7391 79.8C68.6391 80 67.4391 79.8 66.7391 78.8C66.4391 78.4 66.3391 77.9 66.3391 77.4C66.2391 76.4 66.4391 75.3 66.6391 74.3C66.9391 72.9 67.1391 71.4 67.4391 70C67.4391 69.9 67.5391 69.8 67.5391 69.7C67.5391 69.5 67.5391 69.2 67.6391 69.1C67.8391 69 68.1391 69.1 68.3391 69.1C69.0391 69 69.8391 69 70.6391 69Z" fill="#13284D"/>
<path d="M94.7392 75.5C94.7392 76.8 95.8392 77.4 96.9392 77.4C97.9392 77.4 98.9392 77.3 99.9392 76.8C100.039 76.7 100.139 76.8 100.139 76.9C100.239 77.3 100.139 77.6 100.239 78C100.239 78.1 100.239 78.2 100.239 78.3C100.239 78.9 100.339 79 99.6392 79.2C97.9392 79.8 96.1392 80.1 94.3392 79.5C92.9392 79 92.1392 77.9 91.8392 76.4C91.6392 75.1 91.7392 73.8 92.3392 72.6C93.2392 70.7 94.5392 69.3 96.7392 68.9C97.9392 68.7 99.0392 68.7 100.039 69.3C101.039 69.9 101.539 70.7 101.539 71.9C101.539 72.4 101.539 72.9 101.239 73.4C100.839 74.1 100.239 74.6 99.4392 74.9C98.3392 75.3 97.2392 75.5 96.1392 75.5C95.7392 75.5 95.2392 75.5 94.7392 75.5ZM98.7392 71.9C98.8392 71.4 98.3392 71 97.8392 71C96.5392 70.9 95.5392 71.8 95.1392 73C95.0392 73.2 95.1392 73.3 95.3392 73.3C96.1392 73.2 97.0392 73.2 97.8392 73C98.3392 72.8 98.7392 72.4 98.7392 71.9Z" fill="#13284D"/>
<path d="M88.6391 68.8C89.5391 68.7 90.3391 68.9 91.0391 69.2C91.2391 69.3 91.3391 69.4 91.2391 69.6C91.0391 70.2 90.8391 70.7 90.6391 71.3C90.5391 71.5 90.5391 71.5 90.2391 71.4C89.4391 71.1 88.5391 70.9 87.6391 71.2C87.0391 71.4 86.7391 72.1 87.3391 72.6C87.6391 72.9 88.0391 73.1 88.4391 73.3C89.0391 73.6 89.7391 74 90.1391 74.6C90.7391 75.3 90.8391 76.1 90.5391 77C90.1391 78.5 89.0391 79.3 87.7391 79.6C86.3391 80 85.0391 79.9 83.6391 79.5C83.3391 79.3 82.9391 79.3 82.7391 79C82.5391 78.7 82.9391 78.4 82.9391 78.1C83.0391 77.7 83.1391 77.4 83.2391 77.1C83.3391 76.9 83.3391 76.8 83.5391 76.9C84.4391 77.3 85.2391 77.6 86.2391 77.5C86.5391 77.5 86.8391 77.4 87.0391 77.2C87.7391 76.7 87.5391 76 86.9391 75.6C86.3391 75.2 85.7391 74.9 85.1391 74.5C83.9391 73.6 83.6391 72.2 84.2391 71C84.8391 69.6 86.0391 69 87.4391 68.8C87.8391 68.8 88.2391 68.7 88.6391 68.8Z" fill="#13284D"/>
<path d="M79.1392 79.6C78.7392 79.6 78.2392 79.6 77.8392 79.6C77.7392 79.6 77.6392 79.7 77.6392 79.4C77.9392 77.7 78.2392 76.1 78.5392 74.5C78.8392 72.9 79.1392 71.4 79.4392 69.8C79.6392 68.6 79.9392 67.3 80.1392 66.1C80.2392 65.6 80.3392 65 80.4392 64.5C80.4392 64.3 80.5392 64.2 80.7392 64.2C81.6392 64.2 82.4392 64.2 83.3392 64.2C83.5392 64.2 83.5392 64.3 83.5392 64.4C83.2392 65.8 82.9392 67.3 82.6392 68.7C82.4392 69.9 82.1392 71.2 81.9392 72.4C81.6392 74 81.3392 75.5 81.0392 77.1C80.9392 77.9 80.7392 78.7 80.6392 79.4C80.6392 79.6 80.5392 79.5 80.4392 79.5C80.0392 79.6 79.5392 79.6 79.1392 79.6Z" fill="#13284D"/>
<path d="M102.039 79.6C102.439 77.3 102.939 75.1 103.339 72.8C103.739 71 104.039 69.1 104.439 67.3C104.639 66.4 104.839 65.4 104.939 64.5C104.939 64.3 105.039 64.2 105.339 64.2C106.139 64.2 106.939 64.2 107.839 64.2C108.139 64.2 108.139 64.3 108.139 64.5C107.739 66.5 107.339 68.4 107.039 70.4C106.839 71.6 106.539 72.9 106.339 74.1C106.039 75.7 105.739 77.2 105.439 78.8C105.239 79.7 105.239 79.7 104.439 79.7C103.539 79.6 102.739 79.6 102.039 79.6Z" fill="#13284D"/>
<path d="M134.039 71.1C134.939 69.6 136.139 68.5 138.039 68.7C137.839 69.6 137.639 70.6 137.539 71.5C137.539 71.6 137.539 71.6 137.339 71.6C135.739 71.5 134.739 72.4 134.139 73.9C133.739 75 133.539 76.1 133.339 77.3C133.239 78 133.039 78.6 132.939 79.3C132.939 79.4 132.839 79.5 132.739 79.5C131.839 79.5 130.939 79.5 129.939 79.5C129.839 79.5 129.739 79.5 129.739 79.3C130.139 77.4 130.439 75.5 130.839 73.6C131.039 72.4 131.239 71.2 131.339 70C131.339 69.8 131.339 69.5 131.439 69.3C131.439 69.1 131.539 68.9 131.839 68.9C132.539 68.9 133.239 68.9 133.939 68.9C134.139 68.9 134.239 68.9 134.139 69.2C134.039 69.6 134.039 70 134.039 70.3C134.039 70.6 134.039 70.9 134.039 71.1Z" fill="#13284D"/>
<path d="M112.139 70.2C112.139 70.2 112.039 70.2 112.139 70.2C112.039 70.2 112.039 70.1 112.139 70.2C112.139 70.2 112.139 70.1 112.139 70.2Z" fill="#FEFEFE"/>
<path d="M35.4393 70.6C35.4393 70.6 35.4393 70.7 35.4393 70.6C35.3393 70.6 35.3393 70.6 35.4393 70.6Z" fill="#FEFEFE"/>
</svg>
